<svg width="302" height="105" viewBox="0 0 302 105" fill="none" xmlns="http://www.w3.org/2000/svg">
<rect width="301.333" height="105" fill="url(#paint0_radial_3075_29484)"/>
<path d="M16.324 58.5L20.806 45.36H24.982L29.59 58.5H26.962L23.056 47.106L23.974 47.502H21.724L22.66 47.106L18.88 58.5H16.324ZM19.456 55.008L20.266 52.848H25.594L26.386 55.008H19.456ZM35.0193 62.352C34.5513 62.352 34.0713 62.334 33.5793 62.298C33.0993 62.262 32.6493 62.214 32.2293 62.154V60.066C32.6613 60.114 33.1233 60.156 33.6153 60.192C34.1073 60.24 34.5693 60.264 35.0013 60.264C35.8053 60.264 36.4533 60.168 36.9453 59.976C37.4493 59.784 37.8153 59.478 38.0433 59.058C38.2833 58.65 38.4033 58.128 38.4033 57.492V55.566L38.9433 54.342C38.9073 55.242 38.7213 56.01 38.3853 56.646C38.0493 57.27 37.5933 57.75 37.0173 58.086C36.4413 58.41 35.7753 58.572 35.0193 58.572C34.3473 58.572 33.7353 58.446 33.1833 58.194C32.6433 57.942 32.1753 57.594 31.7793 57.15C31.3953 56.706 31.0953 56.184 30.8793 55.584C30.6633 54.984 30.5553 54.342 30.5553 53.658V53.28C30.5553 52.596 30.6633 51.96 30.8793 51.372C31.1073 50.772 31.4253 50.25 31.8333 49.806C32.2413 49.362 32.7273 49.02 33.2913 48.78C33.8553 48.54 34.4793 48.42 35.1633 48.42C35.9673 48.42 36.6633 48.594 37.2513 48.942C37.8513 49.29 38.3193 49.794 38.6553 50.454C38.9913 51.114 39.1773 51.924 39.2133 52.884L38.7812 52.956V48.726H40.7613V57.348C40.7613 58.536 40.5573 59.496 40.1493 60.228C39.7413 60.96 39.1113 61.494 38.2593 61.83C37.4193 62.178 36.3393 62.352 35.0193 62.352ZM35.7393 56.43C36.2193 56.43 36.6573 56.322 37.0533 56.106C37.4493 55.89 37.7673 55.578 38.0073 55.17C38.2473 54.762 38.3673 54.27 38.3673 53.694V53.064C38.3673 52.512 38.2413 52.044 37.9893 51.66C37.7493 51.276 37.4313 50.988 37.0353 50.796C36.6393 50.592 36.2073 50.49 35.7393 50.49C35.2113 50.49 34.7433 50.616 34.3353 50.868C33.9393 51.108 33.6273 51.45 33.3993 51.894C33.1713 52.338 33.0573 52.866 33.0573 53.478C33.0573 54.078 33.1713 54.6 33.3993 55.044C33.6273 55.488 33.9393 55.83 34.3353 56.07C34.7433 56.31 35.2113 56.43 35.7393 56.43ZM47.8644 58.842C47.0244 58.842 46.2864 58.698 45.6504 58.41C45.0264 58.122 44.5044 57.738 44.0844 57.258C43.6764 56.766 43.3644 56.22 43.1484 55.62C42.9444 55.02 42.8424 54.408 42.8424 53.784V53.442C42.8424 52.794 42.9444 52.17 43.1484 51.57C43.3644 50.958 43.6764 50.418 44.0844 49.95C44.5044 49.47 45.0204 49.092 45.6324 48.816C46.2444 48.528 46.9524 48.384 47.7564 48.384C48.8124 48.384 49.6944 48.618 50.4024 49.086C51.1224 49.542 51.6624 50.148 52.0224 50.904C52.3824 51.648 52.5624 52.452 52.5624 53.316V54.216H43.9044V52.686H50.9964L50.2224 53.442C50.2224 52.818 50.1324 52.284 49.9524 51.84C49.7724 51.396 49.4964 51.054 49.1244 50.814C48.7644 50.574 48.3084 50.454 47.7564 50.454C47.2044 50.454 46.7364 50.58 46.3524 50.832C45.9684 51.084 45.6744 51.45 45.4704 51.93C45.2784 52.398 45.1824 52.962 45.1824 53.622C45.1824 54.234 45.2784 54.78 45.4704 55.26C45.6624 55.728 45.9564 56.1 46.3524 56.376C46.7484 56.64 47.2524 56.772 47.8644 56.772C48.4764 56.772 48.9744 56.652 49.3584 56.412C49.7424 56.16 49.9884 55.854 50.0964 55.494H52.4004C52.2564 56.166 51.9804 56.754 51.5724 57.258C51.1644 57.762 50.6424 58.152 50.0064 58.428C49.3824 58.704 48.6684 58.842 47.8644 58.842ZM54.6525 58.5V48.726H56.6325V52.92H56.4525C56.4525 51.924 56.5845 51.096 56.8485 50.436C57.1125 49.764 57.5025 49.26 58.0185 48.924C58.5465 48.588 59.2005 48.42 59.9805 48.42H60.0885C61.2525 48.42 62.1345 48.798 62.7345 49.554C63.3345 50.298 63.6345 51.414 63.6345 52.902V58.5H61.1325V52.686C61.1325 52.086 60.9585 51.6 60.6105 51.228C60.2745 50.856 59.8065 50.67 59.2065 50.67C58.5945 50.67 58.0965 50.862 57.7125 51.246C57.3405 51.618 57.1545 52.122 57.1545 52.758V58.5H54.6525ZM70.5723 58.626C69.6723 58.626 68.9283 58.512 68.3403 58.284C67.7643 58.044 67.3323 57.648 67.0443 57.096C66.7563 56.532 66.6123 55.776 66.6123 54.828L66.6303 45.972H68.9703L68.9523 54.99C68.9523 55.47 69.0783 55.842 69.3303 56.106C69.5943 56.358 69.9663 56.484 70.4463 56.484H71.9763V58.626H70.5723ZM65.0643 50.562V48.726H71.9763V50.562H65.0643ZM77.552 58.806C76.208 58.806 75.152 58.524 74.384 57.96C73.628 57.384 73.232 56.592 73.196 55.584H75.446C75.482 55.92 75.668 56.226 76.004 56.502C76.34 56.778 76.868 56.916 77.588 56.916C78.188 56.916 78.662 56.808 79.01 56.592C79.37 56.376 79.55 56.082 79.55 55.71C79.55 55.386 79.412 55.128 79.136 54.936C78.872 54.744 78.416 54.618 77.768 54.558L76.904 54.468C75.812 54.348 74.972 54.036 74.384 53.532C73.796 53.028 73.502 52.356 73.502 51.516C73.502 50.844 73.67 50.28 74.006 49.824C74.342 49.368 74.804 49.026 75.392 48.798C75.992 48.558 76.676 48.438 77.444 48.438C78.644 48.438 79.616 48.702 80.36 49.23C81.104 49.758 81.494 50.532 81.53 51.552H79.28C79.256 51.216 79.088 50.928 78.776 50.688C78.464 50.448 78.014 50.328 77.426 50.328C76.898 50.328 76.49 50.43 76.202 50.634C75.914 50.838 75.77 51.102 75.77 51.426C75.77 51.738 75.884 51.978 76.112 52.146C76.352 52.314 76.736 52.428 77.264 52.488L78.128 52.578C79.28 52.698 80.18 53.016 80.828 53.532C81.488 54.048 81.818 54.744 81.818 55.62C81.818 56.268 81.638 56.832 81.278 57.312C80.93 57.78 80.438 58.146 79.802 58.41C79.166 58.674 78.416 58.806 77.552 58.806Z" fill="#212278"/>
<defs>
<radialGradient id="paint0_radial_3075_29484" cx="0" cy="0" r="1" gradientTransform="matrix(-233.5 39.5 -257.93 -275.042 233.5 65.5)" gradientUnits="userSpaceOnUse">
<stop stop-color="#7BBDFF"/>
<stop offset="0.793269" stop-color="#E0CCFF"/>
</radialGradient>
</defs>
</svg>
