<svg width="302" height="105" viewBox="0 0 302 105" fill="none" xmlns="http://www.w3.org/2000/svg">
<rect width="301.333" height="105" fill="url(#paint0_linear_3075_29277)"/>
<path d="M16.324 58.5L20.806 45.36H24.982L29.59 58.5H26.962L23.056 47.106L23.974 47.502H21.724L22.66 47.106L18.88 58.5H16.324ZM19.456 55.008L20.266 52.848H25.594L26.386 55.008H19.456ZM31.5779 58.5V45.36H34.1339V58.5H31.5779ZM43.8897 58.5V47.25H46.4457V58.5H43.8897ZM40.0917 47.61V45.36H50.2437V47.61H40.0917ZM51.506 58.5V48.726H53.486V52.866H53.432C53.432 51.462 53.732 50.4 54.332 49.68C54.932 48.96 55.814 48.6 56.978 48.6H57.338V50.778H56.654C55.814 50.778 55.16 51.006 54.692 51.462C54.236 51.906 54.008 52.554 54.008 53.406V58.5H51.506ZM64.8811 58.5V55.602H64.4671V52.38C64.4671 51.816 64.3291 51.396 64.0531 51.12C63.7771 50.844 63.3511 50.706 62.7751 50.706C62.4751 50.706 62.1151 50.712 61.6951 50.724C61.2751 50.736 60.8491 50.754 60.4171 50.778C59.9971 50.79 59.6191 50.808 59.2831 50.832V48.708C59.5591 48.684 59.8711 48.66 60.2191 48.636C60.5671 48.612 60.9211 48.6 61.2811 48.6C61.6531 48.588 62.0011 48.582 62.3251 48.582C63.3331 48.582 64.1671 48.714 64.8271 48.978C65.4991 49.242 66.0031 49.656 66.3391 50.22C66.6871 50.784 66.8611 51.522 66.8611 52.434V58.5H64.8811ZM61.7311 58.752C61.0231 58.752 60.3991 58.626 59.8591 58.374C59.3311 58.122 58.9171 57.762 58.6171 57.294C58.3291 56.826 58.1851 56.262 58.1851 55.602C58.1851 54.882 58.3591 54.294 58.7071 53.838C59.0671 53.382 59.5651 53.04 60.2011 52.812C60.8491 52.584 61.6051 52.47 62.4691 52.47H64.7371V53.964H62.4331C61.8571 53.964 61.4131 54.108 61.1011 54.396C60.8011 54.672 60.6511 55.032 60.6511 55.476C60.6511 55.92 60.8011 56.28 61.1011 56.556C61.4131 56.832 61.8571 56.97 62.4331 56.97C62.7811 56.97 63.0991 56.91 63.3871 56.79C63.6871 56.658 63.9331 56.442 64.1251 56.142C64.3291 55.83 64.4431 55.41 64.4671 54.882L65.0791 55.584C65.0191 56.268 64.8511 56.844 64.5751 57.312C64.3111 57.78 63.9391 58.14 63.4591 58.392C62.9911 58.632 62.4151 58.752 61.7311 58.752ZM70.0091 58.5V48.726H72.5111V58.5H70.0091ZM68.6411 50.598V48.726H72.5111V50.598H68.6411ZM70.9271 47.556C70.4351 47.556 70.0691 47.43 69.8291 47.178C69.6011 46.914 69.4871 46.584 69.4871 46.188C69.4871 45.792 69.6011 45.468 69.8291 45.216C70.0691 44.964 70.4351 44.838 70.9271 44.838C71.4191 44.838 71.7791 44.964 72.0071 45.216C72.2351 45.468 72.3491 45.792 72.3491 46.188C72.3491 46.584 72.2351 46.914 72.0071 47.178C71.7791 47.43 71.4191 47.556 70.9271 47.556ZM75.3947 58.5V48.726H77.3747V52.92H77.1947C77.1947 51.924 77.3267 51.096 77.5907 50.436C77.8547 49.764 78.2447 49.26 78.7607 48.924C79.2887 48.588 79.9427 48.42 80.7227 48.42H80.8307C81.9947 48.42 82.8767 48.798 83.4767 49.554C84.0767 50.298 84.3767 51.414 84.3767 52.902V58.5H81.8747V52.686C81.8747 52.086 81.7007 51.6 81.3527 51.228C81.0167 50.856 80.5487 50.67 79.9487 50.67C79.3367 50.67 78.8387 50.862 78.4547 51.246C78.0827 51.618 77.8967 52.122 77.8967 52.758V58.5H75.3947ZM87.5345 58.5V48.726H90.0365V58.5H87.5345ZM86.1665 50.598V48.726H90.0365V50.598H86.1665ZM88.4525 47.556C87.9605 47.556 87.5945 47.43 87.3545 47.178C87.1265 46.914 87.0125 46.584 87.0125 46.188C87.0125 45.792 87.1265 45.468 87.3545 45.216C87.5945 44.964 87.9605 44.838 88.4525 44.838C88.9445 44.838 89.3045 44.964 89.5325 45.216C89.7605 45.468 89.8745 45.792 89.8745 46.188C89.8745 46.584 89.7605 46.914 89.5325 47.178C89.3045 47.43 88.9445 47.556 88.4525 47.556ZM92.92 58.5V48.726H94.9V52.92H94.72C94.72 51.924 94.852 51.096 95.116 50.436C95.38 49.764 95.77 49.26 96.286 48.924C96.814 48.588 97.468 48.42 98.248 48.42H98.356C99.52 48.42 100.402 48.798 101.002 49.554C101.602 50.298 101.902 51.414 101.902 52.902V58.5H99.4V52.686C99.4 52.086 99.226 51.6 98.878 51.228C98.542 50.856 98.074 50.67 97.474 50.67C96.862 50.67 96.364 50.862 95.98 51.246C95.608 51.618 95.422 52.122 95.422 52.758V58.5H92.92ZM108.408 62.352C107.94 62.352 107.46 62.334 106.968 62.298C106.488 62.262 106.038 62.214 105.618 62.154V60.066C106.05 60.114 106.512 60.156 107.004 60.192C107.496 60.24 107.958 60.264 108.39 60.264C109.194 60.264 109.842 60.168 110.334 59.976C110.838 59.784 111.204 59.478 111.432 59.058C111.672 58.65 111.792 58.128 111.792 57.492V55.566L112.332 54.342C112.296 55.242 112.11 56.01 111.774 56.646C111.438 57.27 110.982 57.75 110.406 58.086C109.83 58.41 109.164 58.572 108.408 58.572C107.736 58.572 107.124 58.446 106.572 58.194C106.032 57.942 105.564 57.594 105.168 57.15C104.784 56.706 104.484 56.184 104.268 55.584C104.052 54.984 103.944 54.342 103.944 53.658V53.28C103.944 52.596 104.052 51.96 104.268 51.372C104.496 50.772 104.814 50.25 105.222 49.806C105.63 49.362 106.116 49.02 106.68 48.78C107.244 48.54 107.868 48.42 108.552 48.42C109.356 48.42 110.052 48.594 110.64 48.942C111.24 49.29 111.708 49.794 112.044 50.454C112.38 51.114 112.566 51.924 112.602 52.884L112.17 52.956V48.726H114.15V57.348C114.15 58.536 113.946 59.496 113.538 60.228C113.13 60.96 112.5 61.494 111.648 61.83C110.808 62.178 109.728 62.352 108.408 62.352ZM109.128 56.43C109.608 56.43 110.046 56.322 110.442 56.106C110.838 55.89 111.156 55.578 111.396 55.17C111.636 54.762 111.756 54.27 111.756 53.694V53.064C111.756 52.512 111.63 52.044 111.378 51.66C111.138 51.276 110.82 50.988 110.424 50.796C110.028 50.592 109.596 50.49 109.128 50.49C108.6 50.49 108.132 50.616 107.724 50.868C107.328 51.108 107.016 51.45 106.788 51.894C106.56 52.338 106.446 52.866 106.446 53.478C106.446 54.078 106.56 54.6 106.788 55.044C107.016 55.488 107.328 55.83 107.724 56.07C108.132 56.31 108.6 56.43 109.128 56.43Z" fill="#212278"/>
<defs>
<linearGradient id="paint0_linear_3075_29277" x1="184.075" y1="-2.51413e-06" x2="104.621" y2="157.709" gradientUnits="userSpaceOnUse">
<stop offset="0.0240385" stop-color="#E0CCFF"/>
<stop offset="1" stop-color="#FEEACE"/>
</linearGradient>
</defs>
</svg>
