<svg width="302" height="105" viewBox="0 0 302 105" fill="none" xmlns="http://www.w3.org/2000/svg">
<rect width="301.333" height="105" fill="url(#paint0_radial_3025_332)"/>
<path d="M23.542 58.842C22.354 58.842 21.334 58.632 20.482 58.212C19.63 57.792 18.934 57.246 18.394 56.574C17.866 55.902 17.476 55.17 17.224 54.378C16.972 53.586 16.846 52.824 16.846 52.092V51.696C16.846 50.88 16.972 50.076 17.224 49.284C17.488 48.492 17.89 47.772 18.43 47.124C18.97 46.476 19.654 45.96 20.482 45.576C21.322 45.18 22.312 44.982 23.452 44.982C24.64 44.982 25.672 45.198 26.548 45.63C27.436 46.05 28.144 46.65 28.672 47.43C29.2 48.198 29.518 49.098 29.626 50.13H27.052C26.956 49.53 26.74 49.026 26.404 48.618C26.08 48.198 25.666 47.886 25.162 47.682C24.658 47.466 24.088 47.358 23.452 47.358C22.804 47.358 22.228 47.472 21.724 47.7C21.22 47.916 20.8 48.228 20.464 48.636C20.128 49.044 19.87 49.524 19.69 50.076C19.522 50.628 19.438 51.24 19.438 51.912C19.438 52.56 19.522 53.16 19.69 53.712C19.87 54.264 20.134 54.75 20.482 55.17C20.83 55.578 21.256 55.896 21.76 56.124C22.276 56.352 22.87 56.466 23.542 56.466C24.526 56.466 25.354 56.226 26.026 55.746C26.71 55.254 27.124 54.57 27.268 53.694H29.842C29.722 54.63 29.404 55.488 28.888 56.268C28.372 57.048 27.664 57.672 26.764 58.14C25.864 58.608 24.79 58.842 23.542 58.842ZM36.4989 58.842C35.6349 58.842 34.8729 58.704 34.2129 58.428C33.5529 58.152 32.9949 57.78 32.5389 57.312C32.0829 56.832 31.7349 56.292 31.4949 55.692C31.2669 55.092 31.1529 54.468 31.1529 53.82V53.442C31.1529 52.77 31.2729 52.134 31.5129 51.534C31.7649 50.922 32.1189 50.382 32.5749 49.914C33.0429 49.434 33.6069 49.062 34.2669 48.798C34.9269 48.522 35.6709 48.384 36.4989 48.384C37.3269 48.384 38.0709 48.522 38.7309 48.798C39.3909 49.062 39.9489 49.434 40.4049 49.914C40.8729 50.382 41.2269 50.922 41.4669 51.534C41.7069 52.134 41.8269 52.77 41.8269 53.442V53.82C41.8269 54.468 41.7069 55.092 41.4669 55.692C41.2389 56.292 40.8969 56.832 40.4409 57.312C39.9849 57.78 39.4269 58.152 38.7669 58.428C38.1069 58.704 37.3509 58.842 36.4989 58.842ZM36.4989 56.7C37.1109 56.7 37.6269 56.568 38.0469 56.304C38.4669 56.028 38.7849 55.662 39.0009 55.206C39.2169 54.738 39.3249 54.21 39.3249 53.622C39.3249 53.022 39.2109 52.494 38.9829 52.038C38.7669 51.57 38.4429 51.204 38.0109 50.94C37.5909 50.664 37.0869 50.526 36.4989 50.526C35.9109 50.526 35.4009 50.664 34.9689 50.94C34.5489 51.204 34.2249 51.57 33.9969 52.038C33.7689 52.494 33.6549 53.022 33.6549 53.622C33.6549 54.21 33.7629 54.738 33.9789 55.206C34.2069 55.662 34.5309 56.028 34.9509 56.304C35.3709 56.568 35.8869 56.7 36.4989 56.7ZM44.0177 58.5V48.726H45.9977V52.92H45.8177C45.8177 51.936 45.9437 51.114 46.1957 50.454C46.4477 49.782 46.8197 49.278 47.3117 48.942C47.8157 48.594 48.4397 48.42 49.1837 48.42H49.2917C50.0477 48.42 50.6717 48.594 51.1637 48.942C51.6677 49.278 52.0397 49.782 52.2797 50.454C52.5317 51.114 52.6577 51.936 52.6577 52.92H52.0277C52.0277 51.936 52.1537 51.114 52.4057 50.454C52.6697 49.782 53.0477 49.278 53.5397 48.942C54.0437 48.594 54.6677 48.42 55.4117 48.42H55.5197C56.2757 48.42 56.9057 48.594 57.4097 48.942C57.9137 49.278 58.2917 49.782 58.5437 50.454C58.8077 51.114 58.9397 51.936 58.9397 52.92V58.5H56.4377V52.686C56.4377 52.074 56.2817 51.588 55.9697 51.228C55.6577 50.856 55.2137 50.67 54.6377 50.67C54.0617 50.67 53.5997 50.862 53.2517 51.246C52.9037 51.618 52.7297 52.122 52.7297 52.758V58.5H50.2277V52.686C50.2277 52.074 50.0717 51.588 49.7597 51.228C49.4477 50.856 49.0037 50.67 48.4277 50.67C47.8517 50.67 47.3897 50.862 47.0417 51.246C46.6937 51.618 46.5197 52.122 46.5197 52.758V58.5H44.0177ZM61.6134 62.1V48.726H63.5934V52.938L63.2874 52.92C63.3354 51.924 63.5394 51.09 63.8994 50.418C64.2714 49.746 64.7634 49.248 65.3754 48.924C65.9874 48.588 66.6714 48.42 67.4274 48.42C68.1234 48.42 68.7474 48.546 69.2994 48.798C69.8634 49.05 70.3434 49.404 70.7394 49.86C71.1474 50.316 71.4594 50.85 71.6754 51.462C71.8914 52.062 71.9994 52.71 71.9994 53.406V53.784C71.9994 54.492 71.8914 55.152 71.6754 55.764C71.4714 56.364 71.1654 56.898 70.7574 57.366C70.3614 57.822 69.8814 58.182 69.3174 58.446C68.7534 58.698 68.1234 58.824 67.4274 58.824C66.6954 58.824 66.0234 58.674 65.4114 58.374C64.8114 58.062 64.3254 57.588 63.9534 56.952C63.5814 56.304 63.3714 55.47 63.3234 54.45L64.1154 55.656V62.1H61.6134ZM66.7974 56.718C67.3374 56.718 67.8054 56.586 68.2014 56.322C68.6094 56.058 68.9274 55.692 69.1554 55.224C69.3834 54.744 69.4974 54.204 69.4974 53.604C69.4974 52.98 69.3834 52.44 69.1554 51.984C68.9274 51.528 68.6094 51.174 68.2014 50.922C67.8054 50.658 67.3374 50.526 66.7974 50.526C66.3054 50.526 65.8494 50.634 65.4294 50.85C65.0214 51.066 64.6854 51.384 64.4214 51.804C64.1694 52.224 64.0434 52.728 64.0434 53.316V54.036C64.0434 54.6 64.1754 55.08 64.4394 55.476C64.7034 55.872 65.0454 56.178 65.4654 56.394C65.8854 56.61 66.3294 56.718 66.7974 56.718ZM77.5293 58.806C76.4013 58.806 75.5253 58.434 74.9013 57.69C74.2893 56.946 73.9833 55.842 73.9833 54.378V48.708H76.4853V54.594C76.4853 55.194 76.6533 55.674 76.9893 56.034C77.3253 56.382 77.7813 56.556 78.3573 56.556C78.9333 56.556 79.4013 56.37 79.7613 55.998C80.1333 55.626 80.3193 55.122 80.3193 54.486V48.708H82.8213V58.5H80.8413V54.342H81.0393C81.0393 55.326 80.9133 56.148 80.6613 56.808C80.4093 57.468 80.0313 57.966 79.5273 58.302C79.0233 58.638 78.3933 58.806 77.6373 58.806H77.5293ZM89.9434 58.626C89.0434 58.626 88.2994 58.512 87.7114 58.284C87.1354 58.044 86.7034 57.648 86.4154 57.096C86.1274 56.532 85.9834 55.776 85.9834 54.828L86.0014 45.972H88.3414L88.3234 54.99C88.3234 55.47 88.4494 55.842 88.7014 56.106C88.9654 56.358 89.3374 56.484 89.8174 56.484H91.3474V58.626H89.9434ZM84.4354 50.562V48.726H91.3474V50.562H84.4354ZM97.7687 58.842C96.9287 58.842 96.1907 58.698 95.5547 58.41C94.9307 58.122 94.4087 57.738 93.9887 57.258C93.5807 56.766 93.2687 56.22 93.0527 55.62C92.8487 55.02 92.7467 54.408 92.7467 53.784V53.442C92.7467 52.794 92.8487 52.17 93.0527 51.57C93.2687 50.958 93.5807 50.418 93.9887 49.95C94.4087 49.47 94.9247 49.092 95.5367 48.816C96.1487 48.528 96.8567 48.384 97.6607 48.384C98.7167 48.384 99.5987 48.618 100.307 49.086C101.027 49.542 101.567 50.148 101.927 50.904C102.287 51.648 102.467 52.452 102.467 53.316V54.216H93.8087V52.686H100.901L100.127 53.442C100.127 52.818 100.037 52.284 99.8567 51.84C99.6767 51.396 99.4007 51.054 99.0287 50.814C98.6687 50.574 98.2127 50.454 97.6607 50.454C97.1087 50.454 96.6407 50.58 96.2567 50.832C95.8727 51.084 95.5787 51.45 95.3747 51.93C95.1827 52.398 95.0867 52.962 95.0867 53.622C95.0867 54.234 95.1827 54.78 95.3747 55.26C95.5667 55.728 95.8607 56.1 96.2567 56.376C96.6527 56.64 97.1567 56.772 97.7687 56.772C98.3807 56.772 98.8787 56.652 99.2627 56.412C99.6467 56.16 99.8927 55.854 100.001 55.494H102.305C102.161 56.166 101.885 56.754 101.477 57.258C101.069 57.762 100.547 58.152 99.9107 58.428C99.2867 58.704 98.5727 58.842 97.7687 58.842Z" fill="#212278"/>
<defs>
<radialGradient id="paint0_radial_3025_332" cx="0" cy="0" r="1" gradientTransform="matrix(-150.667 54.8162 -157.314 -253.195 150.667 54.8162)" gradientUnits="userSpaceOnUse">
<stop stop-color="#E0CCFF"/>
<stop offset="1" stop-color="#ACD5FE"/>
</radialGradient>
</defs>
</svg>
