<svg width="1500" height="500" viewBox="0 0 1500 500" fill="none" xmlns="http://www.w3.org/2000/svg">
<rect width="1500" height="500" fill="black"/>
<path d="M447.61 256.477C448.128 255.52 449.499 255.52 450.025 256.477C451.574 259.336 454.069 265.081 454.069 272.473C454.069 279.86 451.574 285.613 450.025 288.464C449.503 289.421 448.137 289.421 447.61 288.464C446.057 285.609 443.57 279.86 443.57 272.473C443.57 265.081 446.057 259.332 447.61 256.477ZM424.94 259.184C427.159 253.834 433.304 251.296 438.656 253.512L434.786 262.844C432.566 268.194 426.425 270.732 421.069 268.516L424.94 259.184ZM458.975 253.512C464.335 251.296 470.472 253.834 472.691 259.184L476.562 268.516C471.202 270.732 465.065 268.194 462.846 262.844L458.975 253.512ZM409.963 246.717C414.063 242.625 420.709 242.625 424.813 246.717L412.191 259.311C408.092 263.403 401.442 263.403 397.342 259.311L409.963 246.717ZM472.823 246.713C476.922 242.621 483.568 242.621 487.668 246.713L500.289 259.307C496.189 263.399 489.539 263.399 485.44 259.307L472.823 246.713ZM400.877 229.489C406.237 227.273 412.374 229.815 414.593 235.165L387.25 246.471C381.89 248.687 375.754 246.145 373.53 240.795L400.877 229.489ZM483.038 235.165C485.257 229.815 491.402 227.273 496.758 229.489L524.097 240.795C521.877 246.145 515.732 248.683 510.381 246.471L483.038 235.165ZM428.326 214.976C428.326 226.185 437.213 235.589 448.442 235.788C459.909 235.991 469.309 226.74 469.309 215.34V210.1H544.735C544.735 215.887 540.032 220.58 534.231 220.58H479.367C476.863 235.148 464.119 246.272 448.824 246.272H448.82C433.521 246.272 420.772 235.148 418.277 220.58H363.404C357.603 220.58 352.901 215.887 352.901 210.1H428.326V214.976Z" fill="#FF3A3A"/>
<mask id="mask0_2724_20936" style="mask-type:luminance" maskUnits="userSpaceOnUse" x="577" y="208" width="70" height="82">
<path d="M577.259 208.626H646.79V289.582H577.259V208.626Z" fill="white"/>
</mask>
<g mask="url(#mask0_2724_20936)">
<path d="M613.939 288.993C592.86 288.993 578.299 272.401 578.299 248.865C578.299 225.435 592.749 208.626 614.045 208.626C632.196 208.626 644.036 220.229 645.992 234.763H637.734C636.215 226.087 629.802 215.565 613.939 215.565C595.139 215.565 586.558 231.509 586.558 248.865C586.558 266.22 595.249 282.055 613.939 282.055C630.345 282.055 637.191 270.774 638.061 260.035H646.319C644.473 276.954 632.412 288.993 613.939 288.993Z" fill="#FF3A3A"/>
</g>
<mask id="mask1_2724_20936" style="mask-type:luminance" maskUnits="userSpaceOnUse" x="653" y="208" width="77" height="82">
<path d="M653.309 208.626H729.358V289.582H653.309V208.626Z" fill="white"/>
</mask>
<g mask="url(#mask1_2724_20936)">
<path d="M691.444 288.993C668.947 288.993 654.06 272.074 654.06 248.755C654.06 225.435 668.947 208.626 691.444 208.626C713.826 208.626 728.713 225.435 728.713 248.755C728.713 272.074 713.826 288.993 691.444 288.993ZM691.444 282.055C710.566 282.055 720.454 267.084 720.454 248.755C720.454 230.425 710.566 215.565 691.444 215.565C672.211 215.565 662.323 230.425 662.323 248.755C662.323 267.084 672.211 282.055 691.444 282.055Z" fill="#FF3A3A"/>
</g>
<path d="M768.066 287.587H759.812L731.45 210.032H740.031L763.937 279.56H764.047L787.736 210.032H795.995L768.066 287.587Z" fill="#FF3A3A"/>
<path d="M859.474 287.587H805.582V210.032H858.281V216.975H813.513V243.659H853.499V250.602H813.513V280.644H859.474V287.587Z" fill="#FF3A3A"/>
<path d="M878.987 287.587H871.051V210.032H880.722L922.775 276.412H922.991V210.032H930.923V287.587H921.251L879.203 221.207H878.987V287.587Z" fill="#FF3A3A"/>
<path d="M948.322 287.587H940.174L969.185 210.032H978.097L1007.32 287.587H998.849L991.028 266.11H956.148L948.322 287.587ZM973.535 217.518L958.754 259.061H988.528L973.751 217.518H973.535Z" fill="#FF3A3A"/>
<path d="M1024.36 287.587H1016.43V210.032H1026.1L1068.15 276.412H1068.37V210.032H1076.3V287.587H1066.63L1024.58 221.207H1024.36V287.587Z" fill="#FF3A3A"/>
<path d="M1120.43 287.587H1112.61V216.975H1086.2V210.032H1146.94V216.975H1120.43V287.587Z" fill="#FF3A3A"/>
</svg>
