<svg width="302" height="105" viewBox="0 0 302 105" fill="none" xmlns="http://www.w3.org/2000/svg">
<rect width="301.333" height="105" fill="url(#paint0_radial_3075_29383)"/>
<path d="M19.816 58.572V56.196H22.534C23.218 56.196 23.824 56.094 24.352 55.89C24.892 55.674 25.348 55.374 25.72 54.99C26.092 54.606 26.374 54.156 26.566 53.64C26.77 53.112 26.872 52.53 26.872 51.894C26.872 51.234 26.77 50.646 26.566 50.13C26.374 49.602 26.092 49.152 25.72 48.78C25.348 48.408 24.892 48.126 24.352 47.934C23.824 47.742 23.218 47.646 22.534 47.646H19.816V45.27H22.372C23.56 45.27 24.598 45.444 25.486 45.792C26.374 46.14 27.112 46.62 27.7 47.232C28.288 47.832 28.726 48.522 29.014 49.302C29.314 50.07 29.464 50.868 29.464 51.696V52.092C29.464 52.884 29.314 53.664 29.014 54.432C28.726 55.2 28.288 55.896 27.7 56.52C27.112 57.144 26.374 57.642 25.486 58.014C24.598 58.386 23.56 58.572 22.372 58.572H19.816ZM17.62 58.572V45.27H20.176V58.572H17.62ZM37.4768 58.5V55.602H37.0628V52.38C37.0628 51.816 36.9248 51.396 36.6488 51.12C36.3728 50.844 35.9468 50.706 35.3708 50.706C35.0708 50.706 34.7108 50.712 34.2908 50.724C33.8708 50.736 33.4448 50.754 33.0128 50.778C32.5928 50.79 32.2148 50.808 31.8788 50.832V48.708C32.1548 48.684 32.4668 48.66 32.8148 48.636C33.1628 48.612 33.5168 48.6 33.8768 48.6C34.2488 48.588 34.5968 48.582 34.9208 48.582C35.9288 48.582 36.7628 48.714 37.4228 48.978C38.0948 49.242 38.5988 49.656 38.9348 50.22C39.2828 50.784 39.4568 51.522 39.4568 52.434V58.5H37.4768ZM34.3268 58.752C33.6188 58.752 32.9948 58.626 32.4548 58.374C31.9268 58.122 31.5128 57.762 31.2128 57.294C30.9248 56.826 30.7808 56.262 30.7808 55.602C30.7808 54.882 30.9548 54.294 31.3028 53.838C31.6628 53.382 32.1608 53.04 32.7968 52.812C33.4448 52.584 34.2008 52.47 35.0648 52.47H37.3328V53.964H35.0288C34.4528 53.964 34.0088 54.108 33.6968 54.396C33.3968 54.672 33.2468 55.032 33.2468 55.476C33.2468 55.92 33.3968 56.28 33.6968 56.556C34.0088 56.832 34.4528 56.97 35.0288 56.97C35.3768 56.97 35.6948 56.91 35.9828 56.79C36.2828 56.658 36.5288 56.442 36.7208 56.142C36.9248 55.83 37.0388 55.41 37.0628 54.882L37.6748 55.584C37.6148 56.268 37.4468 56.844 37.1708 57.312C36.9068 57.78 36.5348 58.14 36.0548 58.392C35.5868 58.632 35.0108 58.752 34.3268 58.752ZM46.3848 58.626C45.4848 58.626 44.7408 58.512 44.1528 58.284C43.5768 58.044 43.1448 57.648 42.8568 57.096C42.5688 56.532 42.4248 55.776 42.4248 54.828L42.4428 45.972H44.7828L44.7648 54.99C44.7648 55.47 44.8908 55.842 45.1428 56.106C45.4068 56.358 45.7788 56.484 46.2588 56.484H47.7888V58.626H46.3848ZM40.8768 50.562V48.726H47.7888V50.562H40.8768ZM55.7756 58.5V55.602H55.3616V52.38C55.3616 51.816 55.2236 51.396 54.9476 51.12C54.6716 50.844 54.2456 50.706 53.6696 50.706C53.3696 50.706 53.0096 50.712 52.5896 50.724C52.1696 50.736 51.7436 50.754 51.3116 50.778C50.8916 50.79 50.5136 50.808 50.1776 50.832V48.708C50.4536 48.684 50.7656 48.66 51.1136 48.636C51.4616 48.612 51.8156 48.6 52.1756 48.6C52.5476 48.588 52.8956 48.582 53.2196 48.582C54.2276 48.582 55.0616 48.714 55.7216 48.978C56.3936 49.242 56.8976 49.656 57.2336 50.22C57.5816 50.784 57.7556 51.522 57.7556 52.434V58.5H55.7756ZM52.6256 58.752C51.9176 58.752 51.2936 58.626 50.7536 58.374C50.2256 58.122 49.8116 57.762 49.5116 57.294C49.2236 56.826 49.0796 56.262 49.0796 55.602C49.0796 54.882 49.2536 54.294 49.6016 53.838C49.9616 53.382 50.4596 53.04 51.0956 52.812C51.7436 52.584 52.4996 52.47 53.3636 52.47H55.6316V53.964H53.3276C52.7516 53.964 52.3076 54.108 51.9956 54.396C51.6956 54.672 51.5456 55.032 51.5456 55.476C51.5456 55.92 51.6956 56.28 51.9956 56.556C52.3076 56.832 52.7516 56.97 53.3276 56.97C53.6756 56.97 53.9936 56.91 54.2816 56.79C54.5816 56.658 54.8276 56.442 55.0196 56.142C55.2236 55.83 55.3376 55.41 55.3616 54.882L55.9736 55.584C55.9136 56.268 55.7456 56.844 55.4696 57.312C55.2056 57.78 54.8336 58.14 54.3536 58.392C53.8856 58.632 53.3096 58.752 52.6256 58.752Z" fill="#212278"/>
<defs>
<radialGradient id="paint0_radial_3075_29383" cx="0" cy="0" r="1" gradientTransform="matrix(-150.667 54.8162 -157.314 -253.195 150.667 54.8162)" gradientUnits="userSpaceOnUse">
<stop stop-color="#E0CCFF"/>
<stop offset="1" stop-color="#ACD5FE"/>
</radialGradient>
</defs>
</svg>
