<svg width="302" height="105" viewBox="0 0 302 105" fill="none" xmlns="http://www.w3.org/2000/svg">
<rect width="301.333" height="105" fill="url(#paint0_linear_3075_29449)"/>
<path d="M19.816 58.572V56.196H22.534C23.218 56.196 23.824 56.094 24.352 55.89C24.892 55.674 25.348 55.374 25.72 54.99C26.092 54.606 26.374 54.156 26.566 53.64C26.77 53.112 26.872 52.53 26.872 51.894C26.872 51.234 26.77 50.646 26.566 50.13C26.374 49.602 26.092 49.152 25.72 48.78C25.348 48.408 24.892 48.126 24.352 47.934C23.824 47.742 23.218 47.646 22.534 47.646H19.816V45.27H22.372C23.56 45.27 24.598 45.444 25.486 45.792C26.374 46.14 27.112 46.62 27.7 47.232C28.288 47.832 28.726 48.522 29.014 49.302C29.314 50.07 29.464 50.868 29.464 51.696V52.092C29.464 52.884 29.314 53.664 29.014 54.432C28.726 55.2 28.288 55.896 27.7 56.52C27.112 57.144 26.374 57.642 25.486 58.014C24.598 58.386 23.56 58.572 22.372 58.572H19.816ZM17.62 58.572V45.27H20.176V58.572H17.62ZM35.9288 58.842C35.0888 58.842 34.3508 58.698 33.7148 58.41C33.0908 58.122 32.5688 57.738 32.1488 57.258C31.7408 56.766 31.4288 56.22 31.2128 55.62C31.0088 55.02 30.9068 54.408 30.9068 53.784V53.442C30.9068 52.794 31.0088 52.17 31.2128 51.57C31.4288 50.958 31.7408 50.418 32.1488 49.95C32.5688 49.47 33.0848 49.092 33.6968 48.816C34.3088 48.528 35.0168 48.384 35.8208 48.384C36.8768 48.384 37.7588 48.618 38.4668 49.086C39.1868 49.542 39.7268 50.148 40.0868 50.904C40.4468 51.648 40.6268 52.452 40.6268 53.316V54.216H31.9688V52.686H39.0608L38.2868 53.442C38.2868 52.818 38.1968 52.284 38.0168 51.84C37.8368 51.396 37.5608 51.054 37.1888 50.814C36.8288 50.574 36.3728 50.454 35.8208 50.454C35.2688 50.454 34.8008 50.58 34.4168 50.832C34.0328 51.084 33.7388 51.45 33.5348 51.93C33.3428 52.398 33.2468 52.962 33.2468 53.622C33.2468 54.234 33.3428 54.78 33.5348 55.26C33.7268 55.728 34.0208 56.1 34.4168 56.376C34.8128 56.64 35.3168 56.772 35.9288 56.772C36.5408 56.772 37.0388 56.652 37.4228 56.412C37.8068 56.16 38.0528 55.854 38.1608 55.494H40.4648C40.3208 56.166 40.0448 56.754 39.6368 57.258C39.2288 57.762 38.7068 58.152 38.0708 58.428C37.4468 58.704 36.7328 58.842 35.9288 58.842ZM42.9149 58.5V45.36H45.4709V58.5H42.9149ZM45.1109 53.028V50.868L50.3669 50.85V53.01L45.1109 53.028ZM45.1109 47.52V45.36H50.6189V47.52H45.1109ZM53.1341 58.5V48.726H55.6361V58.5H53.1341ZM51.7661 50.598V48.726H55.6361V50.598H51.7661ZM54.0521 47.556C53.5601 47.556 53.1941 47.43 52.9541 47.178C52.7261 46.914 52.6121 46.584 52.6121 46.188C52.6121 45.792 52.7261 45.468 52.9541 45.216C53.1941 44.964 53.5601 44.838 54.0521 44.838C54.5441 44.838 54.9041 44.964 55.1321 45.216C55.3601 45.468 55.4741 45.792 55.4741 46.188C55.4741 46.584 55.3601 46.914 55.1321 47.178C54.9041 47.43 54.5441 47.556 54.0521 47.556Z" fill="#212278"/>
<defs>
<linearGradient id="paint0_linear_3075_29449" x1="301.333" y1="0" x2="34.7814" y2="165.613" gradientUnits="userSpaceOnUse">
<stop offset="0.14" stop-color="#E0CCFF"/>
<stop offset="0.644231" stop-color="#C1F8DC"/>
</linearGradient>
</defs>
</svg>
