<svg width="302" height="105" viewBox="0 0 302 105" fill="none" xmlns="http://www.w3.org/2000/svg">
<rect width="301.333" height="105" transform="translate(0.333008)" fill="url(#paint0_radial_2122_8282)"/>
<path d="M20.545 58.5H17.989V45.36H20.545V58.5ZM26.1281 58.5H23.6261V48.726H25.6061V51.138C26.0201 49.338 27.1361 48.42 28.9541 48.42H29.0621C31.3841 48.42 32.6081 49.932 32.6081 52.902V58.5H30.1061V52.686C30.1061 51.48 29.3681 50.67 28.1801 50.67C26.9561 50.67 26.1281 51.498 26.1281 52.758V58.5ZM37.872 58.5H35.532V50.724H34.308V48.888H35.532V48.492C35.532 46.26 36.792 45.216 39.204 45.216H40.428V47.142H39.024C38.286 47.142 37.872 47.556 37.872 48.276V48.888H40.59V50.724H37.872V58.5ZM46.4747 58.842C43.1087 58.842 41.4527 56.286 41.4527 53.784V53.442C41.4527 50.85 43.1447 48.384 46.3667 48.384C49.5167 48.384 51.1727 50.742 51.1727 53.316V54.216H43.8287C43.9907 55.746 44.8187 56.772 46.4747 56.772C47.6807 56.772 48.4907 56.214 48.7067 55.494H51.0107C50.5787 57.51 48.8867 58.842 46.4747 58.842ZM46.3667 50.454C44.9627 50.454 44.1167 51.282 43.8647 52.686H48.7787C48.5807 51.264 47.7707 50.454 46.3667 50.454ZM55.7648 58.5H53.2628V48.726H55.2428V51.912C55.4948 49.734 56.7008 48.6 58.7348 48.6H59.0948V50.778H58.4108C56.7188 50.778 55.7648 51.714 55.7648 53.406V58.5ZM65.0724 58.842C61.7064 58.842 60.0504 56.286 60.0504 53.784V53.442C60.0504 50.85 61.7424 48.384 64.9644 48.384C68.1144 48.384 69.7704 50.742 69.7704 53.316V54.216H62.4264C62.5884 55.746 63.4164 56.772 65.0724 56.772C66.2784 56.772 67.0884 56.214 67.3044 55.494H69.6084C69.1764 57.51 67.4844 58.842 65.0724 58.842ZM64.9644 50.454C63.5604 50.454 62.7144 51.282 62.4624 52.686H67.3764C67.1784 51.264 66.3684 50.454 64.9644 50.454ZM74.3625 58.5H71.8605V48.726H73.8405V51.138C74.2545 49.338 75.3705 48.42 77.1885 48.42H77.2965C79.6185 48.42 80.8425 49.932 80.8425 52.902V58.5H78.3405V52.686C78.3405 51.48 77.6025 50.67 76.4145 50.67C75.1905 50.67 74.3625 51.498 74.3625 52.758V58.5ZM87.8704 58.842C84.5044 58.842 82.8844 56.304 82.8844 53.802V53.46C82.8844 50.85 84.5764 48.384 87.8524 48.384C90.4084 48.384 92.2624 49.968 92.4244 52.308H89.9944C89.8684 51.3 89.1304 50.544 87.8524 50.544C86.1784 50.544 85.3864 51.822 85.3864 53.622C85.3864 55.368 86.1244 56.682 87.8704 56.682C89.1664 56.682 89.9584 55.926 90.0844 54.864H92.5144C92.3704 57.258 90.4444 58.842 87.8704 58.842ZM98.8927 58.842C95.5267 58.842 93.8707 56.286 93.8707 53.784V53.442C93.8707 50.85 95.5627 48.384 98.7847 48.384C101.935 48.384 103.591 50.742 103.591 53.316V54.216H96.2467C96.4087 55.746 97.2367 56.772 98.8927 56.772C100.099 56.772 100.909 56.214 101.125 55.494H103.429C102.997 57.51 101.305 58.842 98.8927 58.842ZM98.7847 50.454C97.3807 50.454 96.5347 51.282 96.2827 52.686H101.197C100.999 51.264 100.189 50.454 98.7847 50.454Z" fill="#212278"/>
<defs>
<radialGradient id="paint0_radial_2122_8282" cx="0" cy="0" r="1" gradientTransform="matrix(-150.667 54.8162 -157.314 -253.195 150.667 54.8162)" gradientUnits="userSpaceOnUse">
<stop stop-color="#E0CCFF"/>
<stop offset="1" stop-color="#62B0FF"/>
</radialGradient>
</defs>
</svg>