<svg width="301" height="105" viewBox="0 0 301 105" fill="none" xmlns="http://www.w3.org/2000/svg">
<rect width="301" height="105" fill="url(#paint0_linear_2122_7629)"/>
<path d="M20.576 59.5H18.156V43.44H21.72L26.12 53.582H26.494L30.85 43.44H34.458V59.5H31.84V46.454L27.66 56.2H24.756L20.576 46.542V59.5ZM43.6655 59.896C39.5295 59.896 37.6595 56.794 37.6595 53.78V53.362C37.6595 50.282 39.5955 47.246 43.5335 47.246C47.3615 47.246 49.2755 50.084 49.2755 53.12V54.154H40.1235C40.2995 56.244 41.3775 57.718 43.6655 57.718C45.3155 57.718 46.4155 56.904 46.6575 55.914H49.0555C48.5495 58.378 46.5035 59.896 43.6655 59.896ZM43.5335 49.424C41.5975 49.424 40.4975 50.59 40.1895 52.416H46.7675C46.5255 50.546 45.4475 49.424 43.5335 49.424ZM54.6262 59.5H52.0522V47.642H54.0982V50.48C54.6262 48.39 55.9682 47.29 58.1682 47.29H58.2782C61.1822 47.29 62.6342 49.182 62.6342 52.724V59.5H60.0602V52.372C60.0602 50.722 59.0482 49.622 57.4202 49.622C55.7482 49.622 54.6262 50.766 54.6262 52.482V59.5ZM72.8544 59.632H71.0724C68.1244 59.632 66.5404 58.576 66.5404 55.254V49.556H64.5824V47.642H66.5404V44.188H68.9824V47.642H72.8544V49.556H68.9824V55.474C68.9824 56.684 69.6644 57.388 70.8744 57.388H72.8544V59.632ZM78.899 59.808C76.259 59.808 74.609 58.4 74.609 55.958C74.609 53.428 76.501 52.174 79.625 52.174H82.331V51.954C82.331 50.48 81.561 49.71 80.065 49.71C78.833 49.71 77.051 49.798 75.973 49.864V47.642C76.941 47.554 78.327 47.488 79.449 47.488C83.079 47.488 84.795 48.786 84.795 52.086V59.5H82.749V57.234C82.221 58.928 80.923 59.808 78.899 59.808ZM79.559 57.872C80.923 57.872 82.243 57.234 82.331 55.1V53.868H79.559C78.019 53.868 77.161 54.704 77.161 55.892C77.161 57.08 78.019 57.872 79.559 57.872ZM95.0262 59.632H93.2442C90.2962 59.632 88.7122 58.576 88.7122 55.254V49.556H86.7542V47.642H88.7122V44.188H91.1542V47.642H95.0262V49.556H91.1542V55.474C91.1542 56.684 91.8362 57.388 93.0462 57.388H95.0262V59.632ZM107.817 59.896C104.077 59.896 101.965 57.344 101.965 54.484H104.495C104.495 56.354 105.815 57.674 107.839 57.674C109.885 57.674 111.205 56.31 111.205 54.396C111.205 52.526 109.907 51.052 107.839 51.052C106.783 51.052 105.661 51.492 105.067 52.152H102.647L103.461 43.44H112.327V45.662H105.507L105.089 49.908C105.859 49.358 106.849 49.006 108.103 49.006C111.711 49.006 113.735 51.536 113.735 54.264V54.55C113.735 57.278 111.623 59.896 107.817 59.896Z" fill="#212278"/>
<rect x="249.256" y="34.3594" width="15.9884" height="47.3047" fill="#62B0FF"/>
<rect x="269.012" y="23.334" width="15.9884" height="58.3311" fill="#62B0FF"/>
<rect x="229.501" y="44.9277" width="15.9884" height="36.7378" fill="#62B0FF"/>
<defs>
<linearGradient id="paint0_linear_2122_7629" x1="300.665" y1="52.9575" x2="-0.00195449" y2="52.9575" gradientUnits="userSpaceOnUse">
<stop stop-color="#ACD5FE"/>
<stop offset="1" stop-color="#62B0FF"/>
</linearGradient>
</defs>
</svg>