<svg width="301" height="105" viewBox="0 0 301 105" fill="none" xmlns="http://www.w3.org/2000/svg">
<rect width="301" height="105" fill="url(#paint0_linear_2749_46732)"/>
<path d="M20.576 59.5H18.156V43.44H21.72L26.12 53.582H26.494L30.85 43.44H34.458V59.5H31.84V46.454L27.66 56.2H24.756L20.576 46.542V59.5ZM43.6655 59.896C39.5295 59.896 37.6595 56.794 37.6595 53.78V53.362C37.6595 50.282 39.5955 47.246 43.5335 47.246C47.3615 47.246 49.2755 50.084 49.2755 53.12V54.154H40.1235C40.2995 56.244 41.3775 57.718 43.6655 57.718C45.3155 57.718 46.4155 56.904 46.6575 55.914H49.0555C48.5495 58.378 46.5035 59.896 43.6655 59.896ZM43.5335 49.424C41.5975 49.424 40.4975 50.59 40.1895 52.416H46.7675C46.5255 50.546 45.4475 49.424 43.5335 49.424ZM54.6262 59.5H52.0522V47.642H54.0982V50.48C54.6262 48.39 55.9682 47.29 58.1682 47.29H58.2782C61.1822 47.29 62.6342 49.182 62.6342 52.724V59.5H60.0602V52.372C60.0602 50.722 59.0482 49.622 57.4202 49.622C55.7482 49.622 54.6262 50.766 54.6262 52.482V59.5ZM72.8544 59.632H71.0724C68.1244 59.632 66.5404 58.576 66.5404 55.254V49.556H64.5824V47.642H66.5404V44.188H68.9824V47.642H72.8544V49.556H68.9824V55.474C68.9824 56.684 69.6644 57.388 70.8744 57.388H72.8544V59.632ZM78.899 59.808C76.259 59.808 74.609 58.4 74.609 55.958C74.609 53.428 76.501 52.174 79.625 52.174H82.331V51.954C82.331 50.48 81.561 49.71 80.065 49.71C78.833 49.71 77.051 49.798 75.973 49.864V47.642C76.941 47.554 78.327 47.488 79.449 47.488C83.079 47.488 84.795 48.786 84.795 52.086V59.5H82.749V57.234C82.221 58.928 80.923 59.808 78.899 59.808ZM79.559 57.872C80.923 57.872 82.243 57.234 82.331 55.1V53.868H79.559C78.019 53.868 77.161 54.704 77.161 55.892C77.161 57.08 78.019 57.872 79.559 57.872ZM95.0262 59.632H93.2442C90.2962 59.632 88.7122 58.576 88.7122 55.254V49.556H86.7542V47.642H88.7122V44.188H91.1542V47.642H95.0262V49.556H91.1542V55.474C91.1542 56.684 91.8362 57.388 93.0462 57.388H95.0262V59.632ZM108.301 59.896C104.165 59.896 101.855 57.718 101.855 54.704H104.451C104.451 56.09 105.463 57.564 108.301 57.564C110.897 57.564 112.107 56.332 112.107 54.836C112.107 53.604 111.051 52.79 108.939 52.614L107.333 52.46C104.385 52.218 102.471 50.546 102.471 47.928C102.471 44.958 104.759 42.978 108.213 42.978C111.711 42.978 113.999 44.98 113.999 48.06H111.403C111.403 46.652 110.413 45.31 108.213 45.31C106.079 45.31 105.067 46.564 105.067 47.928C105.067 49.028 105.881 49.952 107.575 50.106L109.159 50.238C112.525 50.524 114.725 52.13 114.725 54.836C114.725 57.85 112.173 59.896 108.301 59.896ZM123.253 59.896C119.117 59.896 116.851 56.882 116.851 53.802V53.362C116.851 50.216 119.227 47.246 123.253 47.246C127.279 47.246 129.655 50.216 129.655 53.362V53.802C129.655 56.882 127.389 59.896 123.253 59.896ZM123.253 57.652C125.695 57.652 127.081 55.892 127.081 53.582C127.081 51.228 125.629 49.49 123.253 49.49C120.877 49.49 119.425 51.228 119.425 53.582C119.425 55.892 120.811 57.652 123.253 57.652ZM138.207 59.896C134.071 59.896 131.761 57.718 131.761 54.704H134.357C134.357 56.09 135.369 57.564 138.207 57.564C140.803 57.564 142.013 56.332 142.013 54.836C142.013 53.604 140.957 52.79 138.845 52.614L137.239 52.46C134.291 52.218 132.377 50.546 132.377 47.928C132.377 44.958 134.665 42.978 138.119 42.978C141.617 42.978 143.905 44.98 143.905 48.06H141.309C141.309 46.652 140.319 45.31 138.119 45.31C135.985 45.31 134.973 46.564 134.973 47.928C134.973 49.028 135.787 49.952 137.481 50.106L139.065 50.238C142.431 50.524 144.631 52.13 144.631 54.836C144.631 57.85 142.079 59.896 138.207 59.896Z" fill="#212278"/>
<rect x="249.256" y="34.3633" width="15.9884" height="47.3047" fill="#51EA9E"/>
<rect x="269.012" y="23.3359" width="15.9884" height="58.3311" fill="#51EA9E"/>
<rect x="229.5" y="44.9297" width="15.9884" height="36.7378" fill="#51EA9E"/>
<defs>
<linearGradient id="paint0_linear_2749_46732" x1="300.665" y1="52.9575" x2="-0.00195449" y2="52.9575" gradientUnits="userSpaceOnUse">
<stop stop-color="#E0FBEE"/>
<stop offset="1" stop-color="#51EA9E"/>
</linearGradient>
</defs>
</svg>
