<svg width="302" height="105" viewBox="0 0 302 105" fill="none" xmlns="http://www.w3.org/2000/svg">
<rect width="301.333" height="105" fill="url(#paint0_radial_2191_6379)"/>
<path d="M20.176 58.5H17.62V45.27H22.156C25.468 45.27 27.358 46.962 27.358 49.716V50.004C27.358 52.74 25.468 54.468 22.156 54.468H20.176V58.5ZM22.372 47.484H20.176V52.254H22.372C23.902 52.254 24.766 51.264 24.766 49.86C24.766 48.438 23.902 47.484 22.372 47.484ZM31.842 58.5H29.34V48.726H31.32V51.912C31.572 49.734 32.778 48.6 34.812 48.6H35.172V50.778H34.488C32.796 50.778 31.842 51.714 31.842 53.406V58.5ZM41.1495 58.842C37.7835 58.842 36.1275 56.286 36.1275 53.784V53.442C36.1275 50.85 37.8195 48.384 41.0415 48.384C44.1915 48.384 45.8475 50.742 45.8475 53.316V54.216H38.5035C38.6655 55.746 39.4935 56.772 41.1495 56.772C42.3555 56.772 43.1655 56.214 43.3815 55.494H45.6855C45.2535 57.51 43.5615 58.842 41.1495 58.842ZM41.0415 50.454C39.6375 50.454 38.7915 51.282 38.5395 52.686H43.4535C43.2555 51.264 42.4455 50.454 41.0415 50.454ZM51.9876 58.824C49.2336 58.824 47.2896 56.664 47.2896 53.82V53.442C47.2896 50.634 49.1256 48.42 51.9156 48.42C53.3376 48.42 54.4716 48.978 55.1736 50.13V45.36H57.6756V58.5H55.6956V56.43C55.0296 58.032 53.6616 58.824 51.9876 58.824ZM52.5456 56.718C54.0216 56.718 55.2456 55.674 55.2456 53.91V53.19C55.2456 51.48 53.9676 50.526 52.5456 50.526C50.9256 50.526 49.7916 51.768 49.7916 53.64C49.7916 55.512 50.9436 56.718 52.5456 56.718ZM61.9096 47.556C60.9196 47.556 60.4696 46.98 60.4696 46.188C60.4696 45.396 60.9196 44.838 61.9096 44.838C62.8816 44.838 63.3316 45.396 63.3316 46.188C63.3316 46.98 62.8816 47.556 61.9096 47.556ZM63.4936 58.5H60.9916V50.598H59.6236V48.726H63.4936V58.5ZM70.7151 58.842C67.3491 58.842 65.7291 56.304 65.7291 53.802V53.46C65.7291 50.85 67.4211 48.384 70.6971 48.384C73.2531 48.384 75.1071 49.968 75.2691 52.308H72.8391C72.7131 51.3 71.9751 50.544 70.6971 50.544C69.0231 50.544 68.2311 51.822 68.2311 53.622C68.2311 55.368 68.9691 56.682 70.7151 56.682C72.0111 56.682 72.8031 55.926 72.9291 54.864H75.3591C75.2151 57.258 73.2891 58.842 70.7151 58.842ZM83.0154 58.626H81.6114C78.9114 58.626 77.6514 57.69 77.6514 54.828V50.562H76.1034V48.726H77.6694V45.972H80.0094V48.726H83.0154V50.562H79.9914V54.99C79.9914 55.944 80.5314 56.484 81.4854 56.484H83.0154V58.626ZM86.5014 47.556C85.5114 47.556 85.0614 46.98 85.0614 46.188C85.0614 45.396 85.5114 44.838 86.5014 44.838C87.4734 44.838 87.9234 45.396 87.9234 46.188C87.9234 46.98 87.4734 47.556 86.5014 47.556ZM88.0854 58.5H85.5834V50.598H84.2154V48.726H88.0854V58.5ZM95.6669 58.842C92.2289 58.842 90.3209 56.412 90.3209 53.82V53.442C90.3209 50.76 92.3369 48.384 95.6669 48.384C98.9789 48.384 100.995 50.76 100.995 53.442V53.82C100.995 56.412 99.0869 58.842 95.6669 58.842ZM95.6669 56.7C97.4849 56.7 98.4929 55.386 98.4929 53.622C98.4929 51.84 97.4309 50.526 95.6669 50.526C93.8849 50.526 92.8229 51.84 92.8229 53.622C92.8229 55.386 93.8309 56.7 95.6669 56.7ZM105.688 58.5H103.186V48.726H105.166V51.138C105.58 49.338 106.696 48.42 108.514 48.42H108.622C110.944 48.42 112.168 49.932 112.168 52.902V58.5H109.666V52.686C109.666 51.48 108.928 50.67 107.74 50.67C106.516 50.67 105.688 51.498 105.688 52.758V58.5Z" fill="#212278"/>
<defs>
<radialGradient id="paint0_radial_2191_6379" cx="0" cy="0" r="1" gradientTransform="matrix(-167.498 44.5425 -206.527 -183.032 167.498 60.4575)" gradientUnits="userSpaceOnUse">
<stop stop-color="#ACD5FE"/>
<stop offset="1" stop-color="#C1F8DC"/>
</radialGradient>
</defs>
</svg>