<svg width="302" height="105" viewBox="0 0 302 105" fill="none" xmlns="http://www.w3.org/2000/svg">
<rect width="301.333" height="105" fill="url(#paint0_radial_3075_29416)"/>
<path d="M17.62 58.5V45.27H20.176V58.5H17.62ZM25.648 58.5L21.616 52.776H24.478L28.636 58.5H25.648ZM19.42 54.108V52.038H22.768C23.236 52.038 23.638 51.942 23.974 51.75C24.322 51.558 24.592 51.288 24.784 50.94C24.976 50.592 25.072 50.196 25.072 49.752C25.072 49.296 24.976 48.894 24.784 48.546C24.592 48.198 24.322 47.928 23.974 47.736C23.638 47.544 23.236 47.448 22.768 47.448H19.42V45.27H22.498C23.554 45.27 24.466 45.426 25.234 45.738C26.014 46.05 26.614 46.524 27.034 47.16C27.454 47.796 27.664 48.594 27.664 49.554V49.842C27.664 50.814 27.448 51.612 27.016 52.236C26.596 52.86 26.002 53.328 25.234 53.64C24.466 53.952 23.554 54.108 22.498 54.108H19.42ZM34.8993 58.842C34.0353 58.842 33.2733 58.704 32.6133 58.428C31.9533 58.152 31.3953 57.78 30.9393 57.312C30.4833 56.832 30.1353 56.292 29.8953 55.692C29.6673 55.092 29.5533 54.468 29.5533 53.82V53.442C29.5533 52.77 29.6733 52.134 29.9133 51.534C30.1653 50.922 30.5193 50.382 30.9753 49.914C31.4433 49.434 32.0073 49.062 32.6673 48.798C33.3273 48.522 34.0713 48.384 34.8993 48.384C35.7273 48.384 36.4713 48.522 37.1313 48.798C37.7913 49.062 38.3493 49.434 38.8053 49.914C39.2733 50.382 39.6273 50.922 39.8673 51.534C40.1073 52.134 40.2273 52.77 40.2273 53.442V53.82C40.2273 54.468 40.1073 55.092 39.8673 55.692C39.6393 56.292 39.2973 56.832 38.8413 57.312C38.3853 57.78 37.8273 58.152 37.1673 58.428C36.5073 58.704 35.7513 58.842 34.8993 58.842ZM34.8993 56.7C35.5113 56.7 36.0273 56.568 36.4473 56.304C36.8673 56.028 37.1853 55.662 37.4013 55.206C37.6173 54.738 37.7253 54.21 37.7253 53.622C37.7253 53.022 37.6113 52.494 37.3833 52.038C37.1673 51.57 36.8433 51.204 36.4113 50.94C35.9913 50.664 35.4873 50.526 34.8993 50.526C34.3113 50.526 33.8013 50.664 33.3693 50.94C32.9493 51.204 32.6253 51.57 32.3973 52.038C32.1693 52.494 32.0553 53.022 32.0553 53.622C32.0553 54.21 32.1633 54.738 32.3793 55.206C32.6073 55.662 32.9313 56.028 33.3513 56.304C33.7713 56.568 34.2873 56.7 34.8993 56.7ZM48.1601 58.824C47.3561 58.824 46.6481 58.656 46.0361 58.32C45.4241 57.972 44.9441 57.468 44.5961 56.808C44.2481 56.148 44.0561 55.35 44.0201 54.414H44.3981V58.5H42.4181V45.36H44.9201V51.93L44.2541 52.956C44.3021 51.948 44.5001 51.108 44.8481 50.436C45.2081 49.764 45.6881 49.26 46.2881 48.924C46.8881 48.588 47.5661 48.42 48.3221 48.42C48.9941 48.42 49.6061 48.546 50.1581 48.798C50.7101 49.05 51.1841 49.404 51.5801 49.86C51.9761 50.304 52.2761 50.826 52.4801 51.426C52.6961 52.026 52.8041 52.68 52.8041 53.388V53.766C52.8041 54.474 52.6961 55.134 52.4801 55.746C52.2641 56.358 51.9521 56.898 51.5441 57.366C51.1361 57.822 50.6441 58.182 50.0681 58.446C49.5041 58.698 48.8681 58.824 48.1601 58.824ZM47.6021 56.718C48.1421 56.718 48.6101 56.586 49.0061 56.322C49.4141 56.046 49.7321 55.674 49.9601 55.206C50.1881 54.738 50.3021 54.198 50.3021 53.586C50.3021 52.962 50.1881 52.422 49.9601 51.966C49.7321 51.51 49.4141 51.156 49.0061 50.904C48.6101 50.652 48.1421 50.526 47.6021 50.526C47.1101 50.526 46.6541 50.634 46.2341 50.85C45.8261 51.066 45.4901 51.384 45.2261 51.804C44.9741 52.224 44.8481 52.728 44.8481 53.316V54.036C44.8481 54.6 44.9801 55.08 45.2441 55.476C45.5081 55.872 45.8501 56.178 46.2701 56.394C46.6901 56.61 47.1341 56.718 47.6021 56.718ZM59.702 58.842C58.838 58.842 58.076 58.704 57.416 58.428C56.756 58.152 56.198 57.78 55.742 57.312C55.286 56.832 54.938 56.292 54.698 55.692C54.47 55.092 54.356 54.468 54.356 53.82V53.442C54.356 52.77 54.476 52.134 54.716 51.534C54.968 50.922 55.322 50.382 55.778 49.914C56.246 49.434 56.81 49.062 57.47 48.798C58.13 48.522 58.874 48.384 59.702 48.384C60.53 48.384 61.274 48.522 61.934 48.798C62.594 49.062 63.152 49.434 63.608 49.914C64.076 50.382 64.43 50.922 64.67 51.534C64.91 52.134 65.03 52.77 65.03 53.442V53.82C65.03 54.468 64.91 55.092 64.67 55.692C64.442 56.292 64.1 56.832 63.644 57.312C63.188 57.78 62.63 58.152 61.97 58.428C61.31 58.704 60.554 58.842 59.702 58.842ZM59.702 56.7C60.314 56.7 60.83 56.568 61.25 56.304C61.67 56.028 61.988 55.662 62.204 55.206C62.42 54.738 62.528 54.21 62.528 53.622C62.528 53.022 62.414 52.494 62.186 52.038C61.97 51.57 61.646 51.204 61.214 50.94C60.794 50.664 60.29 50.526 59.702 50.526C59.114 50.526 58.604 50.664 58.172 50.94C57.752 51.204 57.428 51.57 57.2 52.038C56.972 52.494 56.858 53.022 56.858 53.622C56.858 54.21 56.966 54.738 57.182 55.206C57.41 55.662 57.734 56.028 58.154 56.304C58.574 56.568 59.09 56.7 59.702 56.7ZM71.4688 58.626C70.5688 58.626 69.8248 58.512 69.2368 58.284C68.6608 58.044 68.2288 57.648 67.9408 57.096C67.6528 56.532 67.5088 55.776 67.5088 54.828L67.5268 45.972H69.8668L69.8488 54.99C69.8488 55.47 69.9748 55.842 70.2268 56.106C70.4908 56.358 70.8628 56.484 71.3428 56.484H72.8728V58.626H71.4688ZM65.9608 50.562V48.726H72.8728V50.562H65.9608ZM75.4408 58.5V48.726H77.9428V58.5H75.4408ZM74.0728 50.598V48.726H77.9428V50.598H74.0728ZM76.3588 47.556C75.8668 47.556 75.5008 47.43 75.2608 47.178C75.0328 46.914 74.9188 46.584 74.9188 46.188C74.9188 45.792 75.0328 45.468 75.2608 45.216C75.5008 44.964 75.8668 44.838 76.3588 44.838C76.8508 44.838 77.2108 44.964 77.4388 45.216C77.6668 45.468 77.7808 45.792 77.7808 46.188C77.7808 46.584 77.6668 46.914 77.4388 47.178C77.2108 47.43 76.8508 47.556 76.3588 47.556ZM85.1643 58.842C84.3123 58.842 83.5743 58.698 82.9503 58.41C82.3383 58.122 81.8223 57.738 81.4023 57.258C80.9943 56.778 80.6883 56.238 80.4843 55.638C80.2803 55.038 80.1783 54.426 80.1783 53.802V53.46C80.1783 52.8 80.2803 52.17 80.4843 51.57C80.7003 50.958 81.0183 50.418 81.4383 49.95C81.8583 49.47 82.3743 49.092 82.9863 48.816C83.6103 48.528 84.3303 48.384 85.1463 48.384C85.9983 48.384 86.7603 48.552 87.4323 48.888C88.1043 49.212 88.6383 49.668 89.0343 50.256C89.4423 50.844 89.6703 51.528 89.7183 52.308H87.2883C87.2283 51.804 87.0123 51.384 86.6403 51.048C86.2803 50.712 85.7823 50.544 85.1463 50.544C84.5943 50.544 84.1323 50.676 83.7603 50.94C83.4003 51.204 83.1303 51.57 82.9503 52.038C82.7703 52.494 82.6803 53.022 82.6803 53.622C82.6803 54.198 82.7643 54.72 82.9323 55.188C83.1123 55.656 83.3823 56.022 83.7423 56.286C84.1143 56.55 84.5883 56.682 85.1643 56.682C85.5963 56.682 85.9683 56.604 86.2803 56.448C86.5923 56.292 86.8383 56.076 87.0183 55.8C87.2103 55.524 87.3303 55.212 87.3783 54.864H89.8083C89.7603 55.656 89.5263 56.352 89.1063 56.952C88.6983 57.54 88.1523 58.002 87.4683 58.338C86.7963 58.674 86.0283 58.842 85.1643 58.842ZM95.3586 58.806C94.0146 58.806 92.9586 58.524 92.1906 57.96C91.4346 57.384 91.0386 56.592 91.0026 55.584H93.2526C93.2886 55.92 93.4746 56.226 93.8106 56.502C94.1466 56.778 94.6746 56.916 95.3946 56.916C95.9946 56.916 96.4686 56.808 96.8166 56.592C97.1766 56.376 97.3566 56.082 97.3566 55.71C97.3566 55.386 97.2186 55.128 96.9426 54.936C96.6786 54.744 96.2226 54.618 95.5746 54.558L94.7106 54.468C93.6186 54.348 92.7786 54.036 92.1906 53.532C91.6026 53.028 91.3086 52.356 91.3086 51.516C91.3086 50.844 91.4766 50.28 91.8126 49.824C92.1486 49.368 92.6106 49.026 93.1986 48.798C93.7986 48.558 94.4826 48.438 95.2506 48.438C96.4506 48.438 97.4226 48.702 98.1666 49.23C98.9106 49.758 99.3006 50.532 99.3366 51.552H97.0866C97.0626 51.216 96.8946 50.928 96.5826 50.688C96.2706 50.448 95.8206 50.328 95.2326 50.328C94.7046 50.328 94.2966 50.43 94.0086 50.634C93.7206 50.838 93.5766 51.102 93.5766 51.426C93.5766 51.738 93.6906 51.978 93.9186 52.146C94.1586 52.314 94.5426 52.428 95.0706 52.488L95.9346 52.578C97.0866 52.698 97.9866 53.016 98.6346 53.532C99.2946 54.048 99.6246 54.744 99.6246 55.62C99.6246 56.268 99.4446 56.832 99.0846 57.312C98.7366 57.78 98.2446 58.146 97.6086 58.41C96.9726 58.674 96.2226 58.806 95.3586 58.806Z" fill="#212278"/>
<defs>
<radialGradient id="paint0_radial_3075_29416" cx="0" cy="0" r="1" gradientTransform="matrix(-167.498 44.5425 -206.527 -183.032 167.498 60.4575)" gradientUnits="userSpaceOnUse">
<stop stop-color="#ACD5FE"/>
<stop offset="1" stop-color="#C1F8DC"/>
</radialGradient>
</defs>
</svg>
