<svg width="302" height="105" viewBox="0 0 302 105" fill="none" xmlns="http://www.w3.org/2000/svg">
<rect width="301.333" height="105" fill="url(#paint0_linear_3075_29312)"/>
<path d="M22.102 58.842C20.938 58.842 19.954 58.656 19.15 58.284C18.358 57.912 17.752 57.402 17.332 56.754C16.912 56.094 16.702 55.35 16.702 54.522H19.204C19.204 54.87 19.3 55.212 19.492 55.548C19.684 55.872 19.99 56.136 20.41 56.34C20.842 56.544 21.406 56.646 22.102 56.646C22.726 56.646 23.248 56.556 23.668 56.376C24.088 56.196 24.4 55.962 24.604 55.674C24.808 55.374 24.91 55.038 24.91 54.666C24.91 54.198 24.712 53.826 24.316 53.55C23.92 53.262 23.308 53.082 22.48 53.01L21.328 52.92C20.068 52.812 19.06 52.422 18.304 51.75C17.56 51.066 17.188 50.166 17.188 49.05C17.188 48.21 17.386 47.49 17.782 46.89C18.178 46.278 18.73 45.81 19.438 45.486C20.158 45.15 20.998 44.982 21.958 44.982C22.954 44.982 23.812 45.156 24.532 45.504C25.252 45.852 25.81 46.344 26.206 46.98C26.602 47.604 26.8 48.342 26.8 49.194H24.298C24.298 48.834 24.208 48.504 24.028 48.204C23.86 47.892 23.602 47.646 23.254 47.466C22.918 47.274 22.486 47.178 21.958 47.178C21.454 47.178 21.034 47.262 20.698 47.43C20.362 47.598 20.11 47.826 19.942 48.114C19.774 48.402 19.69 48.714 19.69 49.05C19.69 49.458 19.84 49.818 20.14 50.13C20.44 50.43 20.914 50.604 21.562 50.652L22.714 50.76C23.65 50.832 24.472 51.03 25.18 51.354C25.888 51.678 26.434 52.116 26.818 52.668C27.214 53.22 27.412 53.886 27.412 54.666C27.412 55.494 27.196 56.226 26.764 56.862C26.332 57.486 25.714 57.972 24.91 58.32C24.118 58.668 23.182 58.842 22.102 58.842ZM33.9249 58.842C33.0849 58.842 32.3469 58.698 31.7109 58.41C31.0869 58.122 30.5649 57.738 30.1449 57.258C29.7369 56.766 29.4249 56.22 29.2089 55.62C29.0049 55.02 28.9029 54.408 28.9029 53.784V53.442C28.9029 52.794 29.0049 52.17 29.2089 51.57C29.4249 50.958 29.7369 50.418 30.1449 49.95C30.5649 49.47 31.0809 49.092 31.6929 48.816C32.3049 48.528 33.0129 48.384 33.8169 48.384C34.8729 48.384 35.7549 48.618 36.4629 49.086C37.1829 49.542 37.7229 50.148 38.0829 50.904C38.4429 51.648 38.6229 52.452 38.6229 53.316V54.216H29.9649V52.686H37.0569L36.2829 53.442C36.2829 52.818 36.1929 52.284 36.0129 51.84C35.8329 51.396 35.5569 51.054 35.1849 50.814C34.8249 50.574 34.3689 50.454 33.8169 50.454C33.2649 50.454 32.7969 50.58 32.4129 50.832C32.0289 51.084 31.7349 51.45 31.5309 51.93C31.3389 52.398 31.2429 52.962 31.2429 53.622C31.2429 54.234 31.3389 54.78 31.5309 55.26C31.7229 55.728 32.0169 56.1 32.4129 56.376C32.8089 56.64 33.3129 56.772 33.9249 56.772C34.5369 56.772 35.0349 56.652 35.4189 56.412C35.8029 56.16 36.0489 55.854 36.1569 55.494H38.4609C38.3169 56.166 38.0409 56.754 37.6329 57.258C37.2249 57.762 36.7029 58.152 36.0669 58.428C35.4429 58.704 34.7289 58.842 33.9249 58.842ZM45.051 58.842C44.199 58.842 43.461 58.698 42.837 58.41C42.225 58.122 41.709 57.738 41.289 57.258C40.881 56.778 40.575 56.238 40.371 55.638C40.167 55.038 40.065 54.426 40.065 53.802V53.46C40.065 52.8 40.167 52.17 40.371 51.57C40.587 50.958 40.905 50.418 41.325 49.95C41.745 49.47 42.261 49.092 42.873 48.816C43.497 48.528 44.217 48.384 45.033 48.384C45.885 48.384 46.647 48.552 47.319 48.888C47.991 49.212 48.525 49.668 48.921 50.256C49.329 50.844 49.557 51.528 49.605 52.308H47.175C47.115 51.804 46.899 51.384 46.527 51.048C46.167 50.712 45.669 50.544 45.033 50.544C44.481 50.544 44.019 50.676 43.647 50.94C43.287 51.204 43.017 51.57 42.837 52.038C42.657 52.494 42.567 53.022 42.567 53.622C42.567 54.198 42.651 54.72 42.819 55.188C42.999 55.656 43.269 56.022 43.629 56.286C44.001 56.55 44.475 56.682 45.051 56.682C45.483 56.682 45.855 56.604 46.167 56.448C46.479 56.292 46.725 56.076 46.905 55.8C47.097 55.524 47.217 55.212 47.265 54.864H49.695C49.647 55.656 49.413 56.352 48.993 56.952C48.585 57.54 48.039 58.002 47.355 58.338C46.683 58.674 45.915 58.842 45.051 58.842ZM55.0293 58.806C53.9013 58.806 53.0253 58.434 52.4013 57.69C51.7893 56.946 51.4833 55.842 51.4833 54.378V48.708H53.9853V54.594C53.9853 55.194 54.1533 55.674 54.4893 56.034C54.8253 56.382 55.2813 56.556 55.8573 56.556C56.4333 56.556 56.9013 56.37 57.2613 55.998C57.6333 55.626 57.8193 55.122 57.8193 54.486V48.708H60.3213V58.5H58.3413V54.342H58.5393C58.5393 55.326 58.4133 56.148 58.1613 56.808C57.9093 57.468 57.5313 57.966 57.0273 58.302C56.5233 58.638 55.8933 58.806 55.1373 58.806H55.0293ZM63.1954 58.5V48.726H65.1754V52.866H65.1214C65.1214 51.462 65.4214 50.4 66.0214 49.68C66.6214 48.96 67.5034 48.6 68.6674 48.6H69.0274V50.778H68.3434C67.5034 50.778 66.8494 51.006 66.3814 51.462C65.9254 51.906 65.6974 52.554 65.6974 53.406V58.5H63.1954ZM71.1693 58.5V48.726H73.6713V58.5H71.1693ZM69.8013 50.598V48.726H73.6713V50.598H69.8013ZM72.0873 47.556C71.5953 47.556 71.2293 47.43 70.9893 47.178C70.7613 46.914 70.6473 46.584 70.6473 46.188C70.6473 45.792 70.7613 45.468 70.9893 45.216C71.2293 44.964 71.5953 44.838 72.0873 44.838C72.5793 44.838 72.9393 44.964 73.1673 45.216C73.3953 45.468 73.5093 45.792 73.5093 46.188C73.5093 46.584 73.3953 46.914 73.1673 47.178C72.9393 47.43 72.5793 47.556 72.0873 47.556ZM80.8028 58.626C79.9028 58.626 79.1588 58.512 78.5708 58.284C77.9948 58.044 77.5628 57.648 77.2748 57.096C76.9868 56.532 76.8428 55.776 76.8428 54.828L76.8608 45.972H79.2008L79.1828 54.99C79.1828 55.47 79.3088 55.842 79.5608 56.106C79.8248 56.358 80.1968 56.484 80.6768 56.484H82.2068V58.626H80.8028ZM75.2948 50.562V48.726H82.2068V50.562H75.2948ZM84.0188 62.352V60.21H85.8548C86.2028 60.21 86.4908 60.162 86.7188 60.066C86.9588 59.982 87.1568 59.838 87.3128 59.634C87.4688 59.442 87.5888 59.172 87.6728 58.824L90.3008 48.726H92.6948L89.7968 59.364C89.6048 60.096 89.3348 60.678 88.9868 61.11C88.6388 61.554 88.1888 61.872 87.6368 62.064C87.0968 62.256 86.4248 62.352 85.6208 62.352H84.0188ZM87.0608 58.284V56.304H89.1488V58.284H87.0608ZM86.2148 58.284L83.0468 48.726H85.5668L88.5728 58.284H86.2148Z" fill="#212278"/>
<defs>
<linearGradient id="paint0_linear_3075_29312" x1="301.333" y1="0" x2="34.7814" y2="165.613" gradientUnits="userSpaceOnUse">
<stop offset="0.264423" stop-color="#E0CCFF"/>
<stop offset="1" stop-color="#D3E9FF"/>
</linearGradient>
</defs>
</svg>
